<svg width="1614" height="257" viewBox="0 0 1614 257" fill="none" xmlns="http://www.w3.org/2000/svg">
<g clip-path="url(#clip0_177_4)">
<path d="M169.429 225.937V253.416H152.988C136.206 253.416 124.38 248.057 119.39 231.297C107.222 246.657 87.5684 257 60.7715 257C26.1133 257 0 240.581 0 205.593C0 170.605 25.7373 154.186 60.0537 150.978L114.741 145.619V136.709C114.741 113.873 101.89 101.005 79.7071 101.005C57.5244 101.005 46.4502 113.839 43.2373 132.408H7.14356C10.3565 97.079 36.8115 71.3756 79.7071 71.3756C122.603 71.3756 151.177 93.4949 151.177 138.109V211.294C151.177 221.295 155.825 225.937 164.746 225.937H169.395H169.429ZM114.741 171.697L72.2217 175.964C51.1328 177.739 36.4697 187.024 36.4697 204.16C36.4697 221.295 50.0391 228.429 66.1377 228.429C88.2862 228.429 114.741 216.994 114.741 184.873V171.663V171.697Z" fill="#1E1D1E"/>
<path d="M355.606 253.416H322.725L319.136 232.013H316.641C306.626 245.565 291.963 257 264.448 257C224.766 257 197.627 231.672 197.627 185.624V74.9597H234.097V177.773C234.097 210.611 251.973 225.255 274.839 225.255C297.705 225.255 319.17 210.27 319.17 174.94V74.9939H355.64V253.484L355.606 253.416Z" fill="#1E1D1E"/>
<path d="M422.803 210.236V104.213H384.214V74.9598H396.724C417.813 74.9598 425.674 67.4502 425.674 48.1982V26.4203H458.897V74.9598H504.287V104.213H458.897V205.218C458.897 216.994 463.169 227.712 482.139 227.712C487.847 227.712 494.307 226.654 499.639 224.845V253.04C492.837 254.815 483.54 256.966 471.748 256.966C429.947 256.966 422.769 230.546 422.769 210.201L422.803 210.236Z" fill="#1E1D1E"/>
<path d="M521.07 164.188C521.07 109.948 559.659 71.3756 612.227 71.3756C664.795 71.3756 704.068 110.289 704.068 164.188C704.068 218.086 664.761 257 612.227 257C559.693 257 521.07 217.745 521.07 164.188ZM667.974 164.188C667.974 130.633 645.45 103.155 612.227 103.155C579.004 103.155 557.198 130.633 557.198 164.188C557.198 197.742 579.004 225.221 612.227 225.221C645.45 225.221 667.974 197.367 667.974 164.188Z" fill="#1E1D1E"/>
<path d="M815.562 146.711L888.843 253.45H848.443L790.884 170.981L768.736 192.759V253.45H732.266V0H768.736V146.335H771.231L844.854 74.9598H888.809L815.528 146.711H815.562Z" fill="#1E1D1E"/>
<path d="M911.71 25.3279C911.71 12.4933 922.442 2.49182 935.294 2.49182C948.145 2.49182 958.16 12.4933 958.16 25.3279C958.16 38.1626 947.803 48.5395 935.294 48.5395C922.784 48.5395 911.71 37.8212 911.71 25.3279ZM917.076 74.9597H953.546V253.45H917.076V74.9597Z" fill="#1E1D1E"/>
<path d="M1019.99 210.236V104.213H981.402V74.9598H993.912C1015 74.9598 1022.86 67.4502 1022.86 48.1982V26.4203H1056.12V74.9598H1101.51V104.213H1056.12V205.218C1056.12 216.994 1060.39 227.712 1079.36 227.712C1085.07 227.712 1091.49 226.654 1096.86 224.845V253.04C1090.06 254.815 1080.76 256.966 1068.97 256.966C1027.13 256.966 1019.99 230.546 1019.99 210.201V210.236Z" fill="#1E1D1E"/>
<path d="M1159.75 210.236V104.213H1121.16V74.9598H1133.67C1154.76 74.9598 1162.62 67.4502 1162.62 48.1982V26.4203H1195.88V74.9598H1241.27V104.213H1195.88V205.218C1195.88 216.994 1200.15 227.712 1219.12 227.712C1224.83 227.712 1231.26 226.654 1236.62 224.845V253.04C1229.82 254.815 1220.52 256.966 1208.73 256.966C1166.9 256.966 1159.75 230.546 1159.75 210.201V210.236Z" fill="#1E1D1E"/>
<path d="M1426.01 173.472H1293.77C1295.55 205.252 1314.86 227.371 1346.3 227.371C1368.83 227.371 1385.27 218.086 1390.98 199.893H1426.01C1418.49 235.598 1388.48 257 1346.3 257C1294.83 257 1258.02 220.954 1258.02 165.963C1258.02 107.797 1296.27 71.3756 1344.87 71.3756C1388.48 71.3756 1426.73 100.288 1426.73 161.696C1426.73 165.28 1426.35 168.83 1426.01 173.472ZM1294.11 147.769H1391.32C1390.98 120.291 1372.38 101.005 1344.87 101.005C1317.35 101.005 1297.7 121.724 1294.11 147.769Z" fill="#1E1D1E"/>
<path d="M1614 142.785V253.45H1577.53V150.636C1577.53 117.799 1559.65 103.155 1536.79 103.155C1513.92 103.155 1492.46 118.14 1492.46 153.47V253.416H1455.99V0H1492.46V96.3622H1494.95C1504.97 82.8107 1519.63 71.3756 1547.14 71.3756C1586.83 71.3756 1613.97 96.7035 1613.97 142.751L1614 142.785Z" fill="#1E1D1E"/>
</g>
<defs>
<clipPath id="clip0_177_4">
<rect width="1614" height="257" fill="white"/>
</clipPath>
</defs>
</svg>
